<mxfile host="app.diagrams.net" agent="Mozilla/5.0 (Windows NT 10.0; Win64; x64) AppleWebKit/537.36 (KHTML, like Gecko) Chrome/131.0.0.0 Safari/537.36" version="25.0.3">
  <diagram name="Page-1" id="GMj3r2A4Y2rq3BubAKW2">
    <mxGraphModel dx="2647" dy="1487" grid="1" gridSize="10" guides="1" tooltips="1" connect="1" arrows="1" fold="1" page="1" pageScale="1" pageWidth="827" pageHeight="1169" math="0" shadow="0">
      <root>
        <mxCell id="0" />
        <mxCell id="1" parent="0" />
        <mxCell id="izy4RUFxxnUstspW4j9x-1" value="" style="html=1;overflow=block;blockSpacing=1;whiteSpace=wrap;container=1;pointerEvents=0;collapsible=0;recursiveResize=0;fontSize=16.7;fontColor=#333333;fontStyle=3;spacing=0;verticalAlign=bottom;strokeColor=#333333;strokeOpacity=100;fillOpacity=0;rounded=1;absoluteArcSize=1;arcSize=7.5;fillColor=#000000;strokeWidth=0.8;lucidId=.Q4M__F_tF__;" vertex="1" parent="1">
          <mxGeometry x="285" y="195" width="1020" height="2370" as="geometry" />
        </mxCell>
        <mxCell id="izy4RUFxxnUstspW4j9x-61" value="include" style="text;html=1;align=center;verticalAlign=middle;whiteSpace=wrap;rounded=0;" vertex="1" parent="izy4RUFxxnUstspW4j9x-1">
          <mxGeometry x="450" y="285" width="60" height="30" as="geometry" />
        </mxCell>
        <mxCell id="izy4RUFxxnUstspW4j9x-62" value="include" style="text;html=1;align=center;verticalAlign=middle;whiteSpace=wrap;rounded=0;rotation=60;" vertex="1" parent="izy4RUFxxnUstspW4j9x-1">
          <mxGeometry x="515" y="562.5" width="60" height="30" as="geometry" />
        </mxCell>
        <mxCell id="izy4RUFxxnUstspW4j9x-63" value="include" style="text;html=1;align=center;verticalAlign=middle;whiteSpace=wrap;rounded=0;rotation=45;" vertex="1" parent="izy4RUFxxnUstspW4j9x-1">
          <mxGeometry x="485" y="615" width="60" height="30" as="geometry" />
        </mxCell>
        <mxCell id="izy4RUFxxnUstspW4j9x-64" value="include" style="text;html=1;align=center;verticalAlign=middle;whiteSpace=wrap;rounded=0;rotation=45;" vertex="1" parent="izy4RUFxxnUstspW4j9x-1">
          <mxGeometry x="482" y="725" width="60" height="30" as="geometry" />
        </mxCell>
        <mxCell id="izy4RUFxxnUstspW4j9x-65" value="include" style="text;html=1;align=center;verticalAlign=middle;whiteSpace=wrap;rounded=0;rotation=30;" vertex="1" parent="izy4RUFxxnUstspW4j9x-1">
          <mxGeometry x="535" y="845" width="60" height="30" as="geometry" />
        </mxCell>
        <mxCell id="izy4RUFxxnUstspW4j9x-78" value="&lt;span style=&quot;color: rgb(51, 51, 51); font-size: 17px; font-style: italic; font-weight: 700; text-wrap-mode: wrap;&quot;&gt;Système Youdemy&lt;/span&gt;" style="text;html=1;align=center;verticalAlign=middle;resizable=0;points=[];autosize=1;strokeColor=none;fillColor=none;" vertex="1" parent="izy4RUFxxnUstspW4j9x-1">
          <mxGeometry x="445" y="13" width="170" height="30" as="geometry" />
        </mxCell>
        <mxCell id="izy4RUFxxnUstspW4j9x-83" value="&lt;span style=&quot;text-wrap-mode: wrap;&quot;&gt;include&lt;/span&gt;" style="text;html=1;align=center;verticalAlign=middle;resizable=0;points=[];autosize=1;strokeColor=none;fillColor=none;rotation=-35;" vertex="1" parent="izy4RUFxxnUstspW4j9x-1">
          <mxGeometry x="500" y="1165" width="60" height="30" as="geometry" />
        </mxCell>
        <mxCell id="izy4RUFxxnUstspW4j9x-86" value="&lt;span style=&quot;text-wrap-mode: wrap;&quot;&gt;include&lt;/span&gt;" style="text;html=1;align=center;verticalAlign=middle;resizable=0;points=[];autosize=1;strokeColor=none;fillColor=none;rotation=-65;" vertex="1" parent="izy4RUFxxnUstspW4j9x-1">
          <mxGeometry x="560" y="1315" width="60" height="30" as="geometry" />
        </mxCell>
        <mxCell id="izy4RUFxxnUstspW4j9x-2" value="Visiteur" style="html=1;overflow=block;blockSpacing=1;shape=umlActor;labelPosition=center;verticalLabelPosition=bottom;verticalAlign=top;whiteSpace=nowrap;fontSize=13.3;fontColor=#333333;fontStyle=2;spacing=0;strokeColor=#333333;strokeOpacity=100;rounded=1;absoluteArcSize=1;arcSize=7.5;fillColor=#ffffff;strokeWidth=0.8;lucidId=.Q4MOHSBDm2E;" vertex="1" parent="1">
          <mxGeometry x="185" y="352" width="60" height="135" as="geometry" />
        </mxCell>
        <mxCell id="izy4RUFxxnUstspW4j9x-3" value="Consulter le catalogue des cours" style="html=1;overflow=block;blockSpacing=1;whiteSpace=wrap;ellipse;fontSize=13.3;fontColor=#ffffff;fontStyle=2;align=center;spacing=0;verticalAlign=middle;strokeColor=#ffffff;strokeOpacity=100;fillOpacity=100;rounded=1;absoluteArcSize=1;arcSize=7.5;fillColor=#3278cc;strokeWidth=0.8;lucidId=.Q4MeaXKLHhP;" vertex="1" parent="1">
          <mxGeometry x="335" y="255" width="385" height="105" as="geometry" />
        </mxCell>
        <mxCell id="izy4RUFxxnUstspW4j9x-4" value="" style="html=1;jettySize=18;whiteSpace=wrap;fontSize=13;strokeColor=#333333;strokeOpacity=100;strokeWidth=0.8;rounded=0;startArrow=none;endArrow=none;exitX=0.506;exitY=0.5;exitPerimeter=0;entryX=-0.001;entryY=0.5;entryPerimeter=0;lucidId=.Q4MDNzwtKwz;" edge="1" parent="1" source="izy4RUFxxnUstspW4j9x-2" target="izy4RUFxxnUstspW4j9x-3">
          <mxGeometry width="100" height="100" relative="1" as="geometry">
            <Array as="points" />
          </mxGeometry>
        </mxCell>
        <mxCell id="izy4RUFxxnUstspW4j9x-5" value="" style="html=1;jettySize=18;whiteSpace=wrap;fontSize=13;strokeColor=#333333;strokeOpacity=100;strokeWidth=0.8;rounded=0;startArrow=none;endArrow=none;exitX=0.506;exitY=0.5;exitPerimeter=0;entryX=-0.001;entryY=0.5;entryPerimeter=0;lucidId=.Q4MYe-bv_wy;" edge="1" parent="1" source="izy4RUFxxnUstspW4j9x-2" target="izy4RUFxxnUstspW4j9x-10">
          <mxGeometry width="100" height="100" relative="1" as="geometry">
            <Array as="points" />
          </mxGeometry>
        </mxCell>
        <mxCell id="izy4RUFxxnUstspW4j9x-6" value="" style="group;dropTarget=0;pointerEvents=0;" vertex="1" parent="1">
          <mxGeometry x="190" y="52" width="640" height="45" as="geometry" />
        </mxCell>
        <UserObject label="%filename%" placeholders="1" id="izy4RUFxxnUstspW4j9x-7">
          <mxCell style="points=[[0.233,0.967,0]];html=1;overflow=block;blockSpacing=1;whiteSpace=wrap;fontSize=19.7;fontColor=#a9afb8;fontStyle=1;align=center;spacingLeft=7;spacingRight=7;spacingTop=2;spacing=3;strokeOpacity=0;fillOpacity=0;rounded=1;absoluteArcSize=1;arcSize=12;fillColor=#ffffff;strokeWidth=1.5;lucidId=574B.V.jTPgA;" vertex="1" parent="izy4RUFxxnUstspW4j9x-6">
            <mxGeometry width="640" height="31" as="geometry" />
          </mxCell>
        </UserObject>
        <UserObject label="%creatorName%  |  %date{mmmm d, yyyy}%" placeholders="1" id="izy4RUFxxnUstspW4j9x-8">
          <mxCell style="html=1;overflow=block;blockSpacing=1;whiteSpace=wrap;fontSize=11.5;fontColor=#a9afb8;align=center;spacingLeft=7;spacingRight=7;spacingTop=2;spacing=3;strokeOpacity=0;fillOpacity=0;rounded=1;absoluteArcSize=1;arcSize=12;fillColor=#ffffff;strokeWidth=1.5;lucidId=574BS.99andx;" vertex="1" parent="izy4RUFxxnUstspW4j9x-6">
            <mxGeometry y="31" width="640" height="14" as="geometry" />
          </mxCell>
        </UserObject>
        <mxCell id="izy4RUFxxnUstspW4j9x-9" value="" style="html=1;jettySize=18;whiteSpace=wrap;fontSize=13;fontFamily=Helvetica;strokeColor=#a9afb8;strokeOpacity=100;strokeWidth=1.5;rounded=0;startArrow=none;endArrow=none;exitX=0.233;exitY=0.967;exitPerimeter=0;lucidId=574BI-b6ZqHU;" edge="1" parent="izy4RUFxxnUstspW4j9x-6" source="izy4RUFxxnUstspW4j9x-7">
          <mxGeometry width="100" height="100" relative="1" as="geometry">
            <Array as="points" />
            <mxPoint x="494" y="30" as="targetPoint" />
          </mxGeometry>
        </mxCell>
        <mxCell id="izy4RUFxxnUstspW4j9x-10" value="Rechercher des cours par mots-clés" style="html=1;overflow=block;blockSpacing=1;whiteSpace=wrap;ellipse;fontSize=13.3;fontColor=#ffffff;fontStyle=2;align=center;spacing=0;verticalAlign=middle;strokeColor=#ffffff;strokeOpacity=100;fillOpacity=100;rounded=1;absoluteArcSize=1;arcSize=7.5;fillColor=#3278cc;strokeWidth=0.8;lucidId=wBJI.XsBhSe_;" vertex="1" parent="1">
          <mxGeometry x="335" y="367" width="385" height="105" as="geometry" />
        </mxCell>
        <mxCell id="izy4RUFxxnUstspW4j9x-11" value="Créer un compte" style="html=1;overflow=block;blockSpacing=1;whiteSpace=wrap;ellipse;fontSize=13.3;fontColor=#ffffff;fontStyle=2;align=center;spacing=0;verticalAlign=middle;strokeColor=#ffffff;strokeOpacity=100;fillOpacity=100;rounded=1;absoluteArcSize=1;arcSize=7.5;fillColor=#3278cc;strokeWidth=0.8;lucidId=PBJI26.4CMZN;" vertex="1" parent="1">
          <mxGeometry x="335" y="480" width="385" height="105" as="geometry" />
        </mxCell>
        <mxCell id="izy4RUFxxnUstspW4j9x-12" value="" style="html=1;jettySize=18;whiteSpace=wrap;fontSize=13;strokeColor=#333333;strokeOpacity=100;strokeWidth=0.8;rounded=0;startArrow=none;endArrow=none;exitX=-0.001;exitY=0.5;exitPerimeter=0;lucidId=_BJIuGu_UqEu;" edge="1" parent="1" source="izy4RUFxxnUstspW4j9x-11">
          <mxGeometry width="100" height="100" relative="1" as="geometry">
            <Array as="points" />
            <mxPoint x="217" y="420" as="targetPoint" />
          </mxGeometry>
        </mxCell>
        <mxCell id="izy4RUFxxnUstspW4j9x-13" value="Consulter le catalogue des cours" style="html=1;overflow=block;blockSpacing=1;whiteSpace=wrap;ellipse;fontSize=13.3;fontColor=#ffffff;fontStyle=2;align=center;spacing=0;verticalAlign=middle;strokeColor=#ffffff;strokeOpacity=100;fillOpacity=100;rounded=1;absoluteArcSize=1;arcSize=7.5;fillColor=#3278cc;strokeWidth=0.8;lucidId=sCJIOQgmdhDv;" vertex="1" parent="1">
          <mxGeometry x="335" y="600" width="400" height="105" as="geometry" />
        </mxCell>
        <mxCell id="izy4RUFxxnUstspW4j9x-14" value="Etudiant" style="html=1;overflow=block;blockSpacing=1;shape=umlActor;labelPosition=center;verticalLabelPosition=bottom;verticalAlign=top;whiteSpace=nowrap;fontSize=13;align=center;spacing=0;strokeColor=#333333;strokeOpacity=100;rounded=1;absoluteArcSize=1;arcSize=7.5;fillColor=#ffffff;strokeWidth=0.8;lucidId=HCJIMJwB5O0_;" vertex="1" parent="1">
          <mxGeometry x="150" y="810" width="60" height="135" as="geometry" />
        </mxCell>
        <mxCell id="izy4RUFxxnUstspW4j9x-15" value="Rechercher des cours" style="html=1;overflow=block;blockSpacing=1;whiteSpace=wrap;ellipse;fontSize=13.3;fontColor=#ffffff;fontStyle=2;align=center;spacing=0;verticalAlign=middle;strokeColor=#ffffff;strokeOpacity=100;fillOpacity=100;rounded=1;absoluteArcSize=1;arcSize=7.5;fillColor=#3278cc;strokeWidth=0.8;lucidId=6DJIQ5mtknqr;" vertex="1" parent="1">
          <mxGeometry x="335" y="720" width="385" height="105" as="geometry" />
        </mxCell>
        <mxCell id="izy4RUFxxnUstspW4j9x-16" value="S&#39;inscrire à un cours" style="html=1;overflow=block;blockSpacing=1;whiteSpace=wrap;ellipse;fontSize=13.3;fontColor=#ffffff;fontStyle=2;align=center;spacing=0;verticalAlign=middle;strokeColor=#ffffff;strokeOpacity=100;fillOpacity=100;rounded=1;absoluteArcSize=1;arcSize=7.5;fillColor=#3278cc;strokeWidth=0.8;lucidId=hEJIRpVNxAS2;" vertex="1" parent="1">
          <mxGeometry x="335" y="840" width="385" height="105" as="geometry" />
        </mxCell>
        <mxCell id="izy4RUFxxnUstspW4j9x-17" value="Accéder à &quot;Mes cours" style="html=1;overflow=block;blockSpacing=1;whiteSpace=wrap;ellipse;fontSize=13.3;fontColor=#ffffff;fontStyle=2;align=center;spacing=0;verticalAlign=middle;strokeColor=#ffffff;strokeOpacity=100;fillOpacity=100;rounded=1;absoluteArcSize=1;arcSize=7.5;fillColor=#3278cc;strokeWidth=0.8;lucidId=9EJIp-NOQ0uK;" vertex="1" parent="1">
          <mxGeometry x="335" y="960" width="385" height="105" as="geometry" />
        </mxCell>
        <mxCell id="izy4RUFxxnUstspW4j9x-18" value="Enseignant" style="html=1;overflow=block;blockSpacing=1;shape=umlActor;labelPosition=center;verticalLabelPosition=bottom;verticalAlign=top;whiteSpace=nowrap;fontSize=13;align=center;spacing=0;strokeColor=#333333;strokeOpacity=100;rounded=1;absoluteArcSize=1;arcSize=7.5;fillColor=#ffffff;strokeWidth=0.8;lucidId=1FJIW6ts~_9K;" vertex="1" parent="1">
          <mxGeometry x="135" y="1245" width="75" height="150" as="geometry" />
        </mxCell>
        <mxCell id="izy4RUFxxnUstspW4j9x-19" value="Ajouter un cours" style="html=1;overflow=block;blockSpacing=1;whiteSpace=wrap;ellipse;fontSize=13.3;fontColor=#ffffff;fontStyle=2;align=center;spacing=0;verticalAlign=middle;strokeColor=#ffffff;strokeOpacity=100;fillOpacity=100;rounded=1;absoluteArcSize=1;arcSize=7.5;fillColor=#3278cc;strokeWidth=0.8;lucidId=5FJIZ~EA0duo;" vertex="1" parent="1">
          <mxGeometry x="335" y="1125" width="385" height="105" as="geometry" />
        </mxCell>
        <mxCell id="izy4RUFxxnUstspW4j9x-20" value="Modifier un cours" style="html=1;overflow=block;blockSpacing=1;whiteSpace=wrap;ellipse;fontSize=13.3;fontColor=#ffffff;fontStyle=2;align=center;spacing=0;verticalAlign=middle;strokeColor=#ffffff;strokeOpacity=100;fillOpacity=100;rounded=1;absoluteArcSize=1;arcSize=7.5;fillColor=#3278cc;strokeWidth=0.8;lucidId=-FJIc4U9-kFn;" vertex="1" parent="1">
          <mxGeometry x="335" y="1245" width="385" height="105" as="geometry" />
        </mxCell>
        <mxCell id="izy4RUFxxnUstspW4j9x-21" value="Supprimer un cours" style="html=1;overflow=block;blockSpacing=1;whiteSpace=wrap;ellipse;fontSize=13.3;fontColor=#ffffff;fontStyle=2;align=center;spacing=0;verticalAlign=middle;strokeColor=#ffffff;strokeOpacity=100;fillOpacity=100;rounded=1;absoluteArcSize=1;arcSize=7.5;fillColor=#3278cc;strokeWidth=0.8;lucidId=dGJI1WpwUNG.;" vertex="1" parent="1">
          <mxGeometry x="335" y="1365" width="385" height="105" as="geometry" />
        </mxCell>
        <mxCell id="izy4RUFxxnUstspW4j9x-22" value="Consulter les inscriptions" style="html=1;overflow=block;blockSpacing=1;whiteSpace=wrap;ellipse;fontSize=13.3;fontColor=#ffffff;fontStyle=2;align=center;spacing=0;verticalAlign=middle;strokeColor=#ffffff;strokeOpacity=100;fillOpacity=100;rounded=1;absoluteArcSize=1;arcSize=7.5;fillColor=#3278cc;strokeWidth=0.8;lucidId=KHJI-vT~.Ci_;" vertex="1" parent="1">
          <mxGeometry x="335" y="1485" width="385" height="105" as="geometry" />
        </mxCell>
        <mxCell id="izy4RUFxxnUstspW4j9x-23" value="Consulter les statistiques sur les cours" style="html=1;overflow=block;blockSpacing=1;whiteSpace=wrap;ellipse;fontSize=13.3;fontColor=#ffffff;fontStyle=2;align=center;spacing=0;verticalAlign=middle;strokeColor=#ffffff;strokeOpacity=100;fillOpacity=100;rounded=1;absoluteArcSize=1;arcSize=7.5;fillColor=#3278cc;strokeWidth=0.8;lucidId=~HJIeJO3aEMk;" vertex="1" parent="1">
          <mxGeometry x="330" y="1605" width="390" height="105" as="geometry" />
        </mxCell>
        <mxCell id="izy4RUFxxnUstspW4j9x-24" value="Administrateur" style="html=1;overflow=block;blockSpacing=1;shape=umlActor;labelPosition=center;verticalLabelPosition=bottom;verticalAlign=top;whiteSpace=nowrap;fontSize=13;align=center;spacing=0;strokeColor=#333333;strokeOpacity=100;rounded=1;absoluteArcSize=1;arcSize=7.5;fillColor=#ffffff;strokeWidth=0.8;lucidId=4IJIaXl2b95I;" vertex="1" parent="1">
          <mxGeometry x="150" y="1830" width="60" height="135" as="geometry" />
        </mxCell>
        <mxCell id="izy4RUFxxnUstspW4j9x-25" value="Valider les comptes enseignants" style="html=1;overflow=block;blockSpacing=1;whiteSpace=wrap;ellipse;fontSize=13.3;fontColor=#ffffff;fontStyle=2;align=center;spacing=0;verticalAlign=middle;strokeColor=#ffffff;strokeOpacity=100;fillOpacity=100;rounded=1;absoluteArcSize=1;arcSize=7.5;fillColor=#3278cc;strokeWidth=0.8;lucidId=fJJI0DACFdKR;" vertex="1" parent="1">
          <mxGeometry x="330" y="1785" width="390" height="105" as="geometry" />
        </mxCell>
        <mxCell id="izy4RUFxxnUstspW4j9x-26" value="Gérer les utilisateurs" style="html=1;overflow=block;blockSpacing=1;whiteSpace=wrap;ellipse;fontSize=13.3;fontColor=#ffffff;fontStyle=2;align=center;spacing=0;verticalAlign=middle;strokeColor=#ffffff;strokeOpacity=100;fillOpacity=100;rounded=1;absoluteArcSize=1;arcSize=7.5;fillColor=#3278cc;strokeWidth=0.8;lucidId=mJJIXFHOphp9;" vertex="1" parent="1">
          <mxGeometry x="330" y="1905" width="390" height="105" as="geometry" />
        </mxCell>
        <mxCell id="izy4RUFxxnUstspW4j9x-27" value="Gérer les cours, catégories et tags" style="html=1;overflow=block;blockSpacing=1;whiteSpace=wrap;ellipse;fontSize=13.3;fontColor=#ffffff;fontStyle=2;align=center;spacing=0;verticalAlign=middle;strokeColor=#ffffff;strokeOpacity=100;fillOpacity=100;rounded=1;absoluteArcSize=1;arcSize=7.5;fillColor=#3278cc;strokeWidth=0.8;lucidId=tKJIeTMSxuP4;" vertex="1" parent="1">
          <mxGeometry x="335" y="2025" width="390" height="105" as="geometry" />
        </mxCell>
        <mxCell id="izy4RUFxxnUstspW4j9x-28" value="Consulter les statistiques globales" style="html=1;overflow=block;blockSpacing=1;whiteSpace=wrap;ellipse;fontSize=13.3;fontColor=#ffffff;fontStyle=2;align=center;spacing=0;verticalAlign=middle;strokeColor=#ffffff;strokeOpacity=100;fillOpacity=100;rounded=1;absoluteArcSize=1;arcSize=7.5;fillColor=#3278cc;strokeWidth=0.8;lucidId=cMJIz4Ek_zhG;" vertex="1" parent="1">
          <mxGeometry x="339" y="2145" width="385" height="105" as="geometry" />
        </mxCell>
        <mxCell id="izy4RUFxxnUstspW4j9x-29" value="se connecter " style="html=1;overflow=block;blockSpacing=1;whiteSpace=wrap;ellipse;fontSize=13.3;fontColor=#ffffff;fontStyle=2;align=center;spacing=0;verticalAlign=middle;strokeColor=#ffffff;strokeOpacity=100;fillOpacity=100;rounded=1;absoluteArcSize=1;arcSize=7.5;fillColor=#3278cc;strokeWidth=0.8;lucidId=oMJIMR536m2Y;" vertex="1" parent="1">
          <mxGeometry x="900" y="1200" width="325" height="105" as="geometry" />
        </mxCell>
        <mxCell id="izy4RUFxxnUstspW4j9x-30" value="Choisir le rôle: Étudiant ou Enseignant" style="html=1;overflow=block;blockSpacing=1;whiteSpace=wrap;ellipse;fontSize=13.3;fontColor=#ffffff;fontStyle=2;align=center;spacing=0;verticalAlign=middle;strokeColor=#ffffff;strokeOpacity=100;fillOpacity=100;rounded=1;absoluteArcSize=1;arcSize=7.5;fillColor=#3278cc;strokeWidth=0.8;lucidId=VQJI0_viLa0V;" vertex="1" parent="1">
          <mxGeometry x="915" y="420" width="325" height="105" as="geometry" />
        </mxCell>
        <mxCell id="izy4RUFxxnUstspW4j9x-31" value="Insertion en masse de tags pour gagner en efficacité." style="html=1;overflow=block;blockSpacing=1;whiteSpace=wrap;ellipse;fontSize=14;fontColor=#ffffff;fontStyle=2;spacing=0;verticalAlign=middle;strokeColor=#ffffff;strokeOpacity=100;fillOpacity=100;rounded=1;absoluteArcSize=1;arcSize=7.5;fillColor=#3278cc;strokeWidth=0.8;lucidId=1RJILmSG3UAq;" vertex="1" parent="1">
          <mxGeometry x="345" y="2265" width="380" height="105" as="geometry" />
        </mxCell>
        <mxCell id="izy4RUFxxnUstspW4j9x-32" value="" style="html=1;jettySize=18;whiteSpace=wrap;fontSize=13;strokeColor=#333333;strokeOpacity=100;strokeWidth=0.8;rounded=0;startArrow=none;endArrow=none;exitX=-0.001;exitY=0.5;exitPerimeter=0;entryX=0.506;entryY=0.488;entryPerimeter=0;lucidId=a4JISgOYOZJ4;" edge="1" parent="1" source="izy4RUFxxnUstspW4j9x-13" target="izy4RUFxxnUstspW4j9x-14">
          <mxGeometry width="100" height="100" relative="1" as="geometry">
            <Array as="points" />
          </mxGeometry>
        </mxCell>
        <mxCell id="izy4RUFxxnUstspW4j9x-33" value="" style="html=1;jettySize=18;whiteSpace=wrap;fontSize=13;strokeColor=#333333;strokeOpacity=100;strokeWidth=0.8;rounded=0;startArrow=none;endArrow=none;exitX=-0.001;exitY=0.5;exitPerimeter=0;entryX=0.506;entryY=0.488;entryPerimeter=0;lucidId=n4JI.v6ue0kq;" edge="1" parent="1" source="izy4RUFxxnUstspW4j9x-15" target="izy4RUFxxnUstspW4j9x-14">
          <mxGeometry width="100" height="100" relative="1" as="geometry">
            <Array as="points" />
          </mxGeometry>
        </mxCell>
        <mxCell id="izy4RUFxxnUstspW4j9x-34" value="" style="html=1;jettySize=18;whiteSpace=wrap;fontSize=13;strokeColor=#333333;strokeOpacity=100;strokeWidth=0.8;rounded=0;startArrow=none;endArrow=none;exitX=-0.001;exitY=0.5;exitPerimeter=0;entryX=0.506;entryY=0.488;entryPerimeter=0;lucidId=A4JIkp25WeSo;" edge="1" parent="1" source="izy4RUFxxnUstspW4j9x-16" target="izy4RUFxxnUstspW4j9x-14">
          <mxGeometry width="100" height="100" relative="1" as="geometry">
            <Array as="points" />
          </mxGeometry>
        </mxCell>
        <mxCell id="izy4RUFxxnUstspW4j9x-35" value="" style="html=1;jettySize=18;whiteSpace=wrap;fontSize=13;strokeColor=#333333;strokeOpacity=100;strokeWidth=0.8;rounded=0;startArrow=none;endArrow=none;exitX=-0.001;exitY=0.5;exitPerimeter=0;entryX=0.506;entryY=0.488;entryPerimeter=0;lucidId=l5JILMk.RAx~;" edge="1" parent="1" source="izy4RUFxxnUstspW4j9x-17" target="izy4RUFxxnUstspW4j9x-14">
          <mxGeometry width="100" height="100" relative="1" as="geometry">
            <Array as="points" />
          </mxGeometry>
        </mxCell>
        <mxCell id="izy4RUFxxnUstspW4j9x-36" value="" style="html=1;jettySize=18;whiteSpace=wrap;fontSize=13;strokeColor=#333333;strokeOpacity=100;strokeWidth=0.8;rounded=0;startArrow=none;endArrow=none;exitX=0.196;exitY=0.1;exitPerimeter=0;entryX=0.506;entryY=0.488;entryPerimeter=0;lucidId=L5JIc0sVFy.9;" edge="1" parent="1" source="izy4RUFxxnUstspW4j9x-29" target="izy4RUFxxnUstspW4j9x-14">
          <mxGeometry width="100" height="100" relative="1" as="geometry">
            <Array as="points" />
          </mxGeometry>
        </mxCell>
        <mxCell id="izy4RUFxxnUstspW4j9x-37" value="" style="html=1;jettySize=18;whiteSpace=wrap;fontSize=13;strokeColor=#333333;strokeOpacity=100;strokeWidth=0.8;rounded=0;startArrow=none;endArrow=none;exitX=-0.001;exitY=0.5;exitPerimeter=0;entryX=0.505;entryY=0.465;entryPerimeter=0;lucidId=Y6JI9QSnjjPe;" edge="1" parent="1" source="izy4RUFxxnUstspW4j9x-19" target="izy4RUFxxnUstspW4j9x-18">
          <mxGeometry width="100" height="100" relative="1" as="geometry">
            <Array as="points" />
          </mxGeometry>
        </mxCell>
        <mxCell id="izy4RUFxxnUstspW4j9x-38" value="" style="html=1;jettySize=18;whiteSpace=wrap;fontSize=13;strokeColor=#333333;strokeOpacity=100;strokeWidth=0.8;rounded=0;startArrow=none;endArrow=none;exitX=0.012;exitY=0.614;exitPerimeter=0;entryX=0.505;entryY=0.465;entryPerimeter=0;lucidId=K7JIb60TAk5l;" edge="1" parent="1" source="izy4RUFxxnUstspW4j9x-20" target="izy4RUFxxnUstspW4j9x-18">
          <mxGeometry width="100" height="100" relative="1" as="geometry">
            <Array as="points" />
          </mxGeometry>
        </mxCell>
        <mxCell id="izy4RUFxxnUstspW4j9x-39" value="" style="html=1;jettySize=18;whiteSpace=wrap;fontSize=13;strokeColor=#333333;strokeOpacity=100;strokeWidth=0.8;rounded=0;startArrow=none;endArrow=none;exitX=-0.001;exitY=0.5;exitPerimeter=0;entryX=0.505;entryY=0.465;entryPerimeter=0;lucidId=t8JI7VP2Fz.Y;" edge="1" parent="1" source="izy4RUFxxnUstspW4j9x-21" target="izy4RUFxxnUstspW4j9x-18">
          <mxGeometry width="100" height="100" relative="1" as="geometry">
            <Array as="points" />
          </mxGeometry>
        </mxCell>
        <mxCell id="izy4RUFxxnUstspW4j9x-40" value="" style="html=1;jettySize=18;whiteSpace=wrap;fontSize=13;strokeColor=#333333;strokeOpacity=100;strokeWidth=0.8;rounded=0;startArrow=none;endArrow=none;exitX=-0.001;exitY=0.5;exitPerimeter=0;entryX=0.505;entryY=0.465;entryPerimeter=0;lucidId=H8JIR_VQ8QjD;" edge="1" parent="1" source="izy4RUFxxnUstspW4j9x-22" target="izy4RUFxxnUstspW4j9x-18">
          <mxGeometry width="100" height="100" relative="1" as="geometry">
            <Array as="points" />
          </mxGeometry>
        </mxCell>
        <mxCell id="izy4RUFxxnUstspW4j9x-41" value="" style="html=1;jettySize=18;whiteSpace=wrap;fontSize=13;strokeColor=#333333;strokeOpacity=100;strokeWidth=0.8;rounded=0;startArrow=none;endArrow=none;exitX=-0.001;exitY=0.5;exitPerimeter=0;entryX=0.505;entryY=0.493;entryPerimeter=0;lucidId=98JIG_HF2L.u;" edge="1" parent="1" source="izy4RUFxxnUstspW4j9x-23" target="izy4RUFxxnUstspW4j9x-18">
          <mxGeometry width="100" height="100" relative="1" as="geometry">
            <Array as="points" />
          </mxGeometry>
        </mxCell>
        <mxCell id="izy4RUFxxnUstspW4j9x-42" value="" style="html=1;jettySize=18;whiteSpace=wrap;fontSize=13;strokeColor=#333333;strokeOpacity=100;strokeWidth=0.8;rounded=0;startArrow=none;endArrow=none;exitX=-0.001;exitY=0.5;exitPerimeter=0;entryX=0.506;entryY=0.435;entryPerimeter=0;lucidId=m_JINDtMUA9b;" edge="1" parent="1" source="izy4RUFxxnUstspW4j9x-25" target="izy4RUFxxnUstspW4j9x-24">
          <mxGeometry width="100" height="100" relative="1" as="geometry">
            <Array as="points" />
          </mxGeometry>
        </mxCell>
        <mxCell id="izy4RUFxxnUstspW4j9x-43" value="" style="html=1;jettySize=18;whiteSpace=wrap;fontSize=13;strokeColor=#333333;strokeOpacity=100;strokeWidth=0.8;rounded=0;startArrow=none;endArrow=none;exitX=-0.001;exitY=0.5;exitPerimeter=0;entryX=0.506;entryY=0.435;entryPerimeter=0;lucidId=w_JIf0KhFqaC;" edge="1" parent="1" source="izy4RUFxxnUstspW4j9x-26" target="izy4RUFxxnUstspW4j9x-24">
          <mxGeometry width="100" height="100" relative="1" as="geometry">
            <Array as="points" />
          </mxGeometry>
        </mxCell>
        <mxCell id="izy4RUFxxnUstspW4j9x-44" value="" style="html=1;jettySize=18;whiteSpace=wrap;fontSize=13;strokeColor=#333333;strokeOpacity=100;strokeWidth=0.8;rounded=0;startArrow=none;endArrow=none;exitX=-0.001;exitY=0.5;exitPerimeter=0;entryX=0.506;entryY=0.435;entryPerimeter=0;lucidId=6_JI08Sn0S1j;" edge="1" parent="1" source="izy4RUFxxnUstspW4j9x-27" target="izy4RUFxxnUstspW4j9x-24">
          <mxGeometry width="100" height="100" relative="1" as="geometry">
            <Array as="points" />
          </mxGeometry>
        </mxCell>
        <mxCell id="izy4RUFxxnUstspW4j9x-45" value="" style="html=1;jettySize=18;whiteSpace=wrap;fontSize=13;strokeColor=#333333;strokeOpacity=100;strokeWidth=0.8;rounded=0;startArrow=none;endArrow=none;exitX=-0.001;exitY=0.5;exitPerimeter=0;entryX=0.506;entryY=0.435;entryPerimeter=0;lucidId=d.JIVlHRAQY4;" edge="1" parent="1" source="izy4RUFxxnUstspW4j9x-28" target="izy4RUFxxnUstspW4j9x-24">
          <mxGeometry width="100" height="100" relative="1" as="geometry">
            <Array as="points" />
          </mxGeometry>
        </mxCell>
        <mxCell id="izy4RUFxxnUstspW4j9x-46" value="" style="html=1;jettySize=18;whiteSpace=wrap;fontSize=13;strokeColor=#333333;strokeOpacity=100;strokeWidth=0.8;rounded=0;startArrow=none;endArrow=none;exitX=-0.001;exitY=0.5;exitPerimeter=0;entryX=0.506;entryY=0.435;entryPerimeter=0;lucidId=t.JI8o0hiE65;" edge="1" parent="1" source="izy4RUFxxnUstspW4j9x-31" target="izy4RUFxxnUstspW4j9x-24">
          <mxGeometry width="100" height="100" relative="1" as="geometry">
            <Array as="points" />
          </mxGeometry>
        </mxCell>
        <mxCell id="izy4RUFxxnUstspW4j9x-47" value="" style="html=1;jettySize=18;whiteSpace=wrap;fontSize=13;strokeColor=#333333;strokeOpacity=100;strokeWidth=0.8;rounded=0;startArrow=none;endArrow=none;exitX=-0.001;exitY=0.5;exitPerimeter=0;entryX=0.505;entryY=0.465;entryPerimeter=0;lucidId=T.JIptaml0tE;" edge="1" parent="1" source="izy4RUFxxnUstspW4j9x-29" target="izy4RUFxxnUstspW4j9x-18">
          <mxGeometry width="100" height="100" relative="1" as="geometry">
            <Array as="points" />
          </mxGeometry>
        </mxCell>
        <mxCell id="izy4RUFxxnUstspW4j9x-48" value="" style="html=1;jettySize=18;whiteSpace=wrap;fontSize=13;strokeColor=#333333;strokeOpacity=100;strokeWidth=0.8;rounded=0;startArrow=none;endArrow=none;exitX=0.5;exitY=1.004;exitPerimeter=0;entryX=0.506;entryY=0.435;entryPerimeter=0;lucidId=8.JI~7OhA-af;" edge="1" parent="1" source="izy4RUFxxnUstspW4j9x-29" target="izy4RUFxxnUstspW4j9x-24">
          <mxGeometry width="100" height="100" relative="1" as="geometry">
            <Array as="points" />
          </mxGeometry>
        </mxCell>
        <mxCell id="izy4RUFxxnUstspW4j9x-49" value="" style="html=1;jettySize=18;whiteSpace=wrap;fontSize=13;strokeColor=#333333;strokeOpacity=100;dashed=1;fixDash=1;dashPattern=16 6;strokeWidth=0.8;rounded=0;startArrow=none;endArrow=block;endFill=1;exitX=1.001;exitY=0.5;exitPerimeter=0;entryX=-0.001;entryY=0.5;entryPerimeter=0;lucidId=xbKI3sM9zIth;" edge="1" parent="1" source="izy4RUFxxnUstspW4j9x-11" target="izy4RUFxxnUstspW4j9x-30">
          <mxGeometry width="100" height="100" relative="1" as="geometry">
            <Array as="points" />
          </mxGeometry>
        </mxCell>
        <mxCell id="izy4RUFxxnUstspW4j9x-51" value="" style="html=1;jettySize=18;whiteSpace=wrap;fontSize=13;strokeColor=#333333;strokeOpacity=100;dashed=1;fixDash=1;dashPattern=16 6;strokeWidth=0.8;rounded=0;startArrow=none;endArrow=block;endFill=1;exitX=1.001;exitY=0.5;exitPerimeter=0;entryX=0.5;entryY=-0.004;entryPerimeter=0;lucidId=qcKI5Cs7mjRF;" edge="1" parent="1" source="izy4RUFxxnUstspW4j9x-15" target="izy4RUFxxnUstspW4j9x-29">
          <mxGeometry width="100" height="100" relative="1" as="geometry">
            <Array as="points" />
          </mxGeometry>
        </mxCell>
        <mxCell id="izy4RUFxxnUstspW4j9x-52" value="" style="html=1;jettySize=18;whiteSpace=wrap;fontSize=13;strokeColor=#333333;strokeOpacity=100;dashed=1;fixDash=1;dashPattern=16 6;strokeWidth=0.8;rounded=0;startArrow=none;endArrow=block;endFill=1;exitX=1.001;exitY=0.5;exitPerimeter=0;entryX=0.5;entryY=-0.004;entryPerimeter=0;lucidId=EcKIU3nH8bq8;" edge="1" parent="1" source="izy4RUFxxnUstspW4j9x-16" target="izy4RUFxxnUstspW4j9x-29">
          <mxGeometry width="100" height="100" relative="1" as="geometry">
            <Array as="points" />
          </mxGeometry>
        </mxCell>
        <mxCell id="izy4RUFxxnUstspW4j9x-53" value="" style="html=1;jettySize=18;whiteSpace=wrap;fontSize=13;strokeColor=#333333;strokeOpacity=100;dashed=1;fixDash=1;dashPattern=16 6;strokeWidth=0.8;rounded=0;startArrow=none;endArrow=block;endFill=1;exitX=1.001;exitY=0.5;exitPerimeter=0;entryX=0.5;entryY=-0.004;entryPerimeter=0;lucidId=ScKIJI7vGI6G;" edge="1" parent="1" source="izy4RUFxxnUstspW4j9x-13" target="izy4RUFxxnUstspW4j9x-29">
          <mxGeometry width="100" height="100" relative="1" as="geometry">
            <Array as="points" />
          </mxGeometry>
        </mxCell>
        <mxCell id="izy4RUFxxnUstspW4j9x-54" value="" style="html=1;jettySize=18;whiteSpace=wrap;fontSize=13;strokeColor=#333333;strokeOpacity=100;dashed=1;fixDash=1;dashPattern=16 6;strokeWidth=0.8;rounded=0;startArrow=none;endArrow=block;endFill=1;exitX=1.001;exitY=0.5;exitPerimeter=0;entryX=0.5;entryY=-0.004;entryPerimeter=0;lucidId=4cKIadXARPuv;" edge="1" parent="1" source="izy4RUFxxnUstspW4j9x-17" target="izy4RUFxxnUstspW4j9x-29">
          <mxGeometry width="100" height="100" relative="1" as="geometry">
            <Array as="points" />
          </mxGeometry>
        </mxCell>
        <mxCell id="izy4RUFxxnUstspW4j9x-59" value="" style="html=1;jettySize=18;whiteSpace=wrap;fontSize=13;strokeColor=#333333;strokeOpacity=100;dashed=1;fixDash=1;dashPattern=16 6;strokeWidth=0.8;rounded=0;startArrow=none;endArrow=block;endFill=1;exitX=1.001;exitY=0.5;exitPerimeter=0;entryX=0.026;entryY=0.335;entryPerimeter=0;lucidId=aeKIQLY.P478;" edge="1" parent="1" source="izy4RUFxxnUstspW4j9x-19" target="izy4RUFxxnUstspW4j9x-29">
          <mxGeometry width="100" height="100" relative="1" as="geometry">
            <Array as="points" />
          </mxGeometry>
        </mxCell>
        <mxCell id="izy4RUFxxnUstspW4j9x-60" value="" style="html=1;jettySize=18;whiteSpace=wrap;fontSize=13;strokeColor=#333333;strokeOpacity=100;dashed=1;fixDash=1;dashPattern=16 6;strokeWidth=0.8;rounded=0;startArrow=none;endArrow=block;endFill=1;exitX=1.001;exitY=0.5;exitPerimeter=0;entryX=0.01;entryY=0.392;entryPerimeter=0;lucidId=meKISCDMSXJa;" edge="1" parent="1" source="izy4RUFxxnUstspW4j9x-20" target="izy4RUFxxnUstspW4j9x-29">
          <mxGeometry width="100" height="100" relative="1" as="geometry">
            <Array as="points" />
          </mxGeometry>
        </mxCell>
        <mxCell id="izy4RUFxxnUstspW4j9x-67" value="" style="html=1;jettySize=18;whiteSpace=wrap;fontSize=13;strokeColor=#333333;strokeOpacity=100;dashed=1;fixDash=1;dashPattern=16 6;strokeWidth=0.8;rounded=0;startArrow=none;endArrow=block;endFill=1;exitX=1;exitY=0.5;lucidId=meKISCDMSXJa;exitDx=0;exitDy=0;entryX=0.028;entryY=0.64;entryDx=0;entryDy=0;entryPerimeter=0;" edge="1" parent="1" source="izy4RUFxxnUstspW4j9x-21" target="izy4RUFxxnUstspW4j9x-29">
          <mxGeometry width="100" height="100" relative="1" as="geometry">
            <Array as="points" />
            <mxPoint x="730" y="1308" as="sourcePoint" />
            <mxPoint x="910" y="1260" as="targetPoint" />
          </mxGeometry>
        </mxCell>
        <mxCell id="izy4RUFxxnUstspW4j9x-68" value="" style="html=1;jettySize=18;whiteSpace=wrap;fontSize=13;strokeColor=#333333;strokeOpacity=100;dashed=1;fixDash=1;dashPattern=16 6;strokeWidth=0.8;rounded=0;startArrow=none;endArrow=block;endFill=1;exitX=0.983;exitY=0.403;exitPerimeter=0;lucidId=meKISCDMSXJa;exitDx=0;exitDy=0;entryX=0.069;entryY=0.789;entryDx=0;entryDy=0;entryPerimeter=0;" edge="1" parent="1" source="izy4RUFxxnUstspW4j9x-22" target="izy4RUFxxnUstspW4j9x-29">
          <mxGeometry width="100" height="100" relative="1" as="geometry">
            <Array as="points" />
            <mxPoint x="740" y="1318" as="sourcePoint" />
            <mxPoint x="920" y="1270" as="targetPoint" />
          </mxGeometry>
        </mxCell>
        <mxCell id="izy4RUFxxnUstspW4j9x-69" value="" style="html=1;jettySize=18;whiteSpace=wrap;fontSize=13;strokeColor=#333333;strokeOpacity=100;dashed=1;fixDash=1;dashPattern=16 6;strokeWidth=0.8;rounded=0;startArrow=none;endArrow=block;endFill=1;exitX=0.999;exitY=0.384;exitPerimeter=0;entryX=0;entryY=1;lucidId=meKISCDMSXJa;exitDx=0;exitDy=0;entryDx=0;entryDy=0;" edge="1" parent="1" source="izy4RUFxxnUstspW4j9x-23" target="izy4RUFxxnUstspW4j9x-29">
          <mxGeometry width="100" height="100" relative="1" as="geometry">
            <Array as="points" />
            <mxPoint x="750" y="1328" as="sourcePoint" />
            <mxPoint x="933" y="1271" as="targetPoint" />
          </mxGeometry>
        </mxCell>
        <mxCell id="izy4RUFxxnUstspW4j9x-71" value="" style="html=1;jettySize=18;whiteSpace=wrap;fontSize=13;strokeColor=#333333;strokeOpacity=100;dashed=1;fixDash=1;dashPattern=16 6;strokeWidth=0.8;rounded=0;startArrow=none;endArrow=block;endFill=1;exitX=1;exitY=0.5;lucidId=meKISCDMSXJa;exitDx=0;exitDy=0;entryX=0.189;entryY=0.902;entryDx=0;entryDy=0;entryPerimeter=0;" edge="1" parent="1" source="izy4RUFxxnUstspW4j9x-25" target="izy4RUFxxnUstspW4j9x-29">
          <mxGeometry width="100" height="100" relative="1" as="geometry">
            <Array as="points" />
            <mxPoint x="730" y="1655" as="sourcePoint" />
            <mxPoint x="960" y="1280" as="targetPoint" />
          </mxGeometry>
        </mxCell>
        <mxCell id="izy4RUFxxnUstspW4j9x-72" value="" style="html=1;jettySize=18;whiteSpace=wrap;fontSize=13;strokeColor=#333333;strokeOpacity=100;dashed=1;fixDash=1;dashPattern=16 6;strokeWidth=0.8;rounded=0;startArrow=none;endArrow=block;endFill=1;exitX=1;exitY=0.5;lucidId=meKISCDMSXJa;exitDx=0;exitDy=0;entryX=0.262;entryY=0.937;entryDx=0;entryDy=0;entryPerimeter=0;" edge="1" parent="1" source="izy4RUFxxnUstspW4j9x-26" target="izy4RUFxxnUstspW4j9x-29">
          <mxGeometry width="100" height="100" relative="1" as="geometry">
            <Array as="points" />
            <mxPoint x="740" y="1665" as="sourcePoint" />
            <mxPoint x="968" y="1310" as="targetPoint" />
          </mxGeometry>
        </mxCell>
        <mxCell id="izy4RUFxxnUstspW4j9x-74" value="" style="html=1;jettySize=18;whiteSpace=wrap;fontSize=13;strokeColor=#333333;strokeOpacity=100;dashed=1;fixDash=1;dashPattern=16 6;strokeWidth=0.8;rounded=0;startArrow=none;endArrow=block;endFill=1;exitX=1;exitY=0.5;lucidId=meKISCDMSXJa;exitDx=0;exitDy=0;entryX=0.292;entryY=0.983;entryDx=0;entryDy=0;entryPerimeter=0;" edge="1" parent="1" source="izy4RUFxxnUstspW4j9x-27" target="izy4RUFxxnUstspW4j9x-29">
          <mxGeometry width="100" height="100" relative="1" as="geometry">
            <Array as="points" />
            <mxPoint x="730" y="1968" as="sourcePoint" />
            <mxPoint x="1000" y="1310" as="targetPoint" />
          </mxGeometry>
        </mxCell>
        <mxCell id="izy4RUFxxnUstspW4j9x-76" value="" style="html=1;jettySize=18;whiteSpace=wrap;fontSize=13;strokeColor=#333333;strokeOpacity=100;dashed=1;fixDash=1;dashPattern=16 6;strokeWidth=0.8;rounded=0;startArrow=none;endArrow=block;endFill=1;exitX=1;exitY=0.5;lucidId=meKISCDMSXJa;exitDx=0;exitDy=0;entryX=0.338;entryY=0.952;entryDx=0;entryDy=0;entryPerimeter=0;" edge="1" parent="1" source="izy4RUFxxnUstspW4j9x-28" target="izy4RUFxxnUstspW4j9x-29">
          <mxGeometry width="100" height="100" relative="1" as="geometry">
            <Array as="points" />
            <mxPoint x="735" y="2088" as="sourcePoint" />
            <mxPoint x="1010" y="1320" as="targetPoint" />
          </mxGeometry>
        </mxCell>
        <mxCell id="izy4RUFxxnUstspW4j9x-77" value="" style="html=1;jettySize=18;whiteSpace=wrap;fontSize=13;strokeColor=#333333;strokeOpacity=100;dashed=1;fixDash=1;dashPattern=16 6;strokeWidth=0.8;rounded=0;startArrow=none;endArrow=block;endFill=1;exitX=0.987;exitY=0.372;lucidId=meKISCDMSXJa;exitDx=0;exitDy=0;entryX=0.361;entryY=1.021;entryDx=0;entryDy=0;entryPerimeter=0;exitPerimeter=0;" edge="1" parent="1" source="izy4RUFxxnUstspW4j9x-31" target="izy4RUFxxnUstspW4j9x-29">
          <mxGeometry width="100" height="100" relative="1" as="geometry">
            <Array as="points" />
            <mxPoint x="734" y="2208" as="sourcePoint" />
            <mxPoint x="1020" y="1310" as="targetPoint" />
          </mxGeometry>
        </mxCell>
        <mxCell id="izy4RUFxxnUstspW4j9x-80" value="&lt;span style=&quot;text-wrap-mode: wrap;&quot;&gt;include&lt;/span&gt;" style="text;html=1;align=center;verticalAlign=middle;resizable=0;points=[];autosize=1;strokeColor=none;fillColor=none;" vertex="1" parent="1">
          <mxGeometry x="810" y="1188" width="60" height="30" as="geometry" />
        </mxCell>
        <mxCell id="izy4RUFxxnUstspW4j9x-81" value="&lt;span style=&quot;text-wrap-mode: wrap;&quot;&gt;include&lt;/span&gt;" style="text;html=1;align=center;verticalAlign=middle;resizable=0;points=[];autosize=1;strokeColor=none;fillColor=none;" vertex="1" parent="1">
          <mxGeometry x="750" y="1258" width="60" height="30" as="geometry" />
        </mxCell>
        <mxCell id="izy4RUFxxnUstspW4j9x-82" value="&lt;span style=&quot;text-wrap-mode: wrap;&quot;&gt;include&lt;/span&gt;" style="text;html=1;align=center;verticalAlign=middle;resizable=0;points=[];autosize=1;strokeColor=none;fillColor=none;" vertex="1" parent="1">
          <mxGeometry x="770" y="1308" width="60" height="30" as="geometry" />
        </mxCell>
        <mxCell id="izy4RUFxxnUstspW4j9x-84" value="&lt;span style=&quot;text-wrap-mode: wrap;&quot;&gt;include&lt;/span&gt;" style="text;html=1;align=center;verticalAlign=middle;resizable=0;points=[];autosize=1;strokeColor=none;fillColor=none;rotation=-53;" vertex="1" parent="1">
          <mxGeometry x="810" y="1418" width="60" height="30" as="geometry" />
        </mxCell>
        <mxCell id="izy4RUFxxnUstspW4j9x-85" value="&lt;span style=&quot;text-wrap-mode: wrap;&quot;&gt;include&lt;/span&gt;" style="text;html=1;align=center;verticalAlign=middle;resizable=0;points=[];autosize=1;strokeColor=none;fillColor=none;rotation=-56;" vertex="1" parent="1">
          <mxGeometry x="830" y="1458" width="60" height="30" as="geometry" />
        </mxCell>
        <mxCell id="izy4RUFxxnUstspW4j9x-88" value="&lt;span style=&quot;text-wrap-mode: wrap;&quot;&gt;include&lt;/span&gt;" style="text;html=1;align=center;verticalAlign=middle;resizable=0;points=[];autosize=1;strokeColor=none;fillColor=none;rotation=-73;" vertex="1" parent="1">
          <mxGeometry x="870" y="1548" width="60" height="30" as="geometry" />
        </mxCell>
        <mxCell id="izy4RUFxxnUstspW4j9x-89" value="&lt;span style=&quot;text-wrap-mode: wrap;&quot;&gt;include&lt;/span&gt;" style="text;html=1;align=center;verticalAlign=middle;resizable=0;points=[];autosize=1;strokeColor=none;fillColor=none;rotation=-75;" vertex="1" parent="1">
          <mxGeometry x="860" y="1618" width="60" height="30" as="geometry" />
        </mxCell>
        <mxCell id="izy4RUFxxnUstspW4j9x-90" value="&lt;span style=&quot;text-wrap-mode: wrap;&quot;&gt;include&lt;/span&gt;" style="text;html=1;align=center;verticalAlign=middle;resizable=0;points=[];autosize=1;strokeColor=none;fillColor=none;rotation=-65;" vertex="1" parent="1">
          <mxGeometry x="850" y="1738" width="60" height="30" as="geometry" />
        </mxCell>
      </root>
    </mxGraphModel>
  </diagram>
</mxfile>
